# xmcd
# Copyright (C) 1995-1998 Ti Kan
#
# Track frame offsets:
#       150
#       22413
#       40968
#       46149
#       60795
#       82468
#       102628
#       110331
#       130349
#       146208
#       164422
#       178959
#       187823
#       201467
#
# Disc length: 2959 seconds
#
# Revision: 0
# Processed by: cddbd v1.5.2PL0 Copyright (c) Steve Scherf et al.
# Submitted via: CD-Transfer v1.0
#
DISCID=d60b8d0e
DTITLE=Soften - Just Like Lonesome Jim
DYEAR=06
DGENRE=
TTITLE0=Invisible Fences
TTITLE1=An Oversight
TTITLE2=To The Woods
TTITLE3=When You Give In
TTITLE4=Little John
TTITLE5=Switch
TTITLE6=Twin Voices
TTITLE7=Last Page Feeling
TTITLE8=Stardust
TTITLE9=Neons (Men With Passions)
TTITLE10=Kalvin
TTITLE11=Melt
TTITLE12=Murderer
TTITLE13=Spleeny
EXTD=
EXTT0=
EXTT1=
EXTT2=
EXTT3=
EXTT4=
EXTT5=
EXTT6=
EXTT7=
EXTT8=
EXTT9=
EXTT10=
EXTT11=
EXTT12=
EXTT13=
PLAYORDER=
